<svg id="Lager_1" data-name="Lager 1" xmlns="http://www.w3.org/2000/svg" xmlns:xlink="http://www.w3.org/1999/xlink" viewBox="0 0 364.37 57.06"><defs><style>.cls-1{fill:none;}.cls-2{clip-path:url(#clip-path);}.cls-3{fill:url(#Namnlös_övertoning_9);}.cls-4{clip-path:url(#clip-path-2);}.cls-5{fill:url(#Namnlös_övertoning_10);}.cls-6{clip-path:url(#clip-path-3);}.cls-7{fill:url(#Namnlös_övertoning_11);}.cls-8{clip-path:url(#clip-path-4);}.cls-9{fill:url(#Namnlös_övertoning_12);}.cls-10{fill:#fff;}</style><clipPath id="clip-path" transform="translate(-5 -16.79)"><path class="cls-1" d="M5,45.32A28.38,28.38,0,0,0,9.73,61.05L33.3,37.48,17.52,21.7A28.52,28.52,0,0,0,5,45.32"/></clipPath><linearGradient id="Namnlös_övertoning_9" x1="-128.22" y1="308.06" x2="-127.05" y2="308.06" gradientTransform="matrix(24.09, 0, 0, -24.09, 3089.12, 7446.39)" gradientUnits="userSpaceOnUse"><stop offset="0" stop-color="#383f9a"/><stop offset="1" stop-color="#4b62ab"/></linearGradient><clipPath id="clip-path-2" transform="translate(-5 -16.79)"><path class="cls-1" d="M18.8,20.89,41.21,43.3,56.33,28.17A28.52,28.52,0,0,0,18.8,20.89"/></clipPath><linearGradient id="Namnlös_övertoning_10" x1="-135.36" y1="311.32" x2="-134.18" y2="311.32" gradientTransform="matrix(0, 22.57, 22.57, 0, -6993.26, 3054.78)" gradientUnits="userSpaceOnUse"><stop offset="0" stop-color="#bd2756"/><stop offset="1" stop-color="#f72a58"/></linearGradient><clipPath id="clip-path-3" transform="translate(-5 -16.79)"><path class="cls-1" d="M33.16,53.56,48.93,69.33a28.52,28.52,0,0,0,8.33-39.85Z"/></clipPath><linearGradient id="Namnlös_övertoning_11" x1="-128.15" y1="307.97" x2="-126.98" y2="307.97" gradientTransform="matrix(24.61, 0, 0, -24.61, 3181.7, 7611.08)" gradientUnits="userSpaceOnUse"><stop offset="0" stop-color="#40a543"/><stop offset="1" stop-color="#37853e"/></linearGradient><clipPath id="clip-path-4" transform="translate(-5 -16.79)"><path class="cls-1" d="M10.64,62.35a28.53,28.53,0,0,0,37,7.77L25.25,47.74Z"/></clipPath><linearGradient id="Namnlös_övertoning_12" x1="-135.19" y1="311.34" x2="-134.01" y2="311.34" gradientTransform="matrix(0, 22.23, 22.23, 0, -6897.72, 3036.48)" gradientUnits="userSpaceOnUse"><stop offset="0" stop-color="#ffa411"/><stop offset="1" stop-color="#ff700c"/></linearGradient></defs><title>up_kunskapsbanki</title><g class="cls-2"><rect class="cls-3" y="4.91" width="28.3" height="39.35"/></g><g class="cls-4"><rect class="cls-5" x="13.8" width="37.54" height="26.51"/></g><g class="cls-6"><rect class="cls-7" x="28.16" y="12.69" width="28.9" height="39.86"/></g><g class="cls-8"><rect class="cls-9" x="5.64" y="30.95" width="36.99" height="26.11"/></g><path class="cls-10" d="M77.66,30.36V44.23l14.1-13.87h4.79L84.82,41.58,97,58.17H92.34l-10-14.06-4.63,4.32v9.74H74V30.36Z" transform="translate(-5 -16.79)"/><path class="cls-10" d="M113,58.17V55h-.08a6.76,6.76,0,0,1-2.69,2.74,8,8,0,0,1-3.85.88,9,9,0,0,1-3.31-.53,5.28,5.28,0,0,1-2.15-1.5,5.71,5.71,0,0,1-1.15-2.31,12.53,12.53,0,0,1-.33-3V38h3.31V51.67a4,4,0,0,0,1.09,3,4.09,4.09,0,0,0,3,1.09,6.75,6.75,0,0,0,2.63-.47,4.81,4.81,0,0,0,1.85-1.33,5.44,5.44,0,0,0,1.11-2,8.06,8.06,0,0,0,.37-2.51V38h3.31V58.17Z" transform="translate(-5 -16.79)"/><path class="cls-10" d="M124.17,38v3.2h.07a7,7,0,0,1,6.55-3.67,8.8,8.8,0,0,1,3.31.55,5.38,5.38,0,0,1,2.14,1.52A5.57,5.57,0,0,1,137.39,42a12.47,12.47,0,0,1,.33,3V58.17h-3.31V44.54a4,4,0,0,0-1.09-3,4.05,4.05,0,0,0-3-1.09,6.8,6.8,0,0,0-2.63.46,5,5,0,0,0-1.85,1.33,5.83,5.83,0,0,0-1.11,2,8.12,8.12,0,0,0-.37,2.52V58.17h-3.31V38Z" transform="translate(-5 -16.79)"/><path class="cls-10" d="M145.24,53.67a3.48,3.48,0,0,0,1.23,1.21,5.37,5.37,0,0,0,1.71.64,9.82,9.82,0,0,0,2,.2,11.71,11.71,0,0,0,1.63-.12,6,6,0,0,0,1.58-.43,3,3,0,0,0,1.19-.91,2.48,2.48,0,0,0,.47-1.54,2.21,2.21,0,0,0-1-1.95,8.28,8.28,0,0,0-2.43-1.07c-1-.27-2-.52-3.18-.74a15.84,15.84,0,0,1-3.17-.94,6.48,6.48,0,0,1-2.44-1.69,4.41,4.41,0,0,1-1-3,4.88,4.88,0,0,1,.68-2.61,5.58,5.58,0,0,1,1.75-1.77,8.19,8.19,0,0,1,2.42-1,11.17,11.17,0,0,1,2.67-.34,15.46,15.46,0,0,1,3.15.3,7.21,7.21,0,0,1,2.55,1,5.32,5.32,0,0,1,1.78,2,7.47,7.47,0,0,1,.78,3.06h-3.32a3.41,3.41,0,0,0-.5-1.62,3.35,3.35,0,0,0-1.09-1,5,5,0,0,0-1.46-.57,7.37,7.37,0,0,0-1.62-.17,11,11,0,0,0-1.5.11,5.18,5.18,0,0,0-1.38.41,2.76,2.76,0,0,0-1,.78,2,2,0,0,0-.39,1.27,1.87,1.87,0,0,0,.6,1.42,4.55,4.55,0,0,0,1.54.93,13.07,13.07,0,0,0,2.1.63l2.34.52c.83.19,1.64.41,2.43.67a7.82,7.82,0,0,1,2.11,1A5.18,5.18,0,0,1,158,49.87a4.84,4.84,0,0,1,.56,2.42,5.6,5.6,0,0,1-.76,3,6,6,0,0,1-2,2,8.5,8.5,0,0,1-2.77,1,16.85,16.85,0,0,1-3.06.29,14.31,14.31,0,0,1-3.19-.35,8.05,8.05,0,0,1-2.69-1.15A5.84,5.84,0,0,1,142.2,55a7.24,7.24,0,0,1-.78-3.18h3.31A3.76,3.76,0,0,0,145.24,53.67Z" transform="translate(-5 -16.79)"/><path class="cls-10" d="M165.69,30.36V46.84L174.88,38h4.44l-8,7.33,8.57,12.81H175.7l-6.89-10.52-3.12,2.89v7.63h-3.31V30.36Z" transform="translate(-5 -16.79)"/><path class="cls-10" d="M200.24,58.09a4.65,4.65,0,0,1-2.38.51,2.84,2.84,0,0,1-2-.72,3.13,3.13,0,0,1-.76-2.36,7.94,7.94,0,0,1-3.18,2.36,11,11,0,0,1-6.5.41,5.84,5.84,0,0,1-2.12-1,4.67,4.67,0,0,1-1.43-1.73,6.88,6.88,0,0,1,.06-5.39,5.12,5.12,0,0,1,1.54-1.78,7.07,7.07,0,0,1,2.18-1c.82-.23,1.66-.43,2.51-.58s1.78-.32,2.6-.41a14.48,14.48,0,0,0,2.16-.39,3.74,3.74,0,0,0,1.48-.74,1.82,1.82,0,0,0,.54-1.42,3.28,3.28,0,0,0-.41-1.76,2.75,2.75,0,0,0-1.05-1A4.44,4.44,0,0,0,192,40.6a12.11,12.11,0,0,0-1.58-.11,6.89,6.89,0,0,0-3.5.8,3.36,3.36,0,0,0-1.52,3h-3.31a7.1,7.1,0,0,1,.78-3.15,5.89,5.89,0,0,1,1.87-2.09,7.77,7.77,0,0,1,2.66-1.14,13.81,13.81,0,0,1,3.22-.36,18.9,18.9,0,0,1,2.71.2,7,7,0,0,1,2.43.8,4.58,4.58,0,0,1,1.75,1.69,5.39,5.39,0,0,1,.66,2.83V53.42a7.68,7.68,0,0,0,.14,1.71c.09.37.4.55.92.55a3.8,3.8,0,0,0,1-.16Zm-5.38-10.32a4.07,4.07,0,0,1-1.63.68c-.68.14-1.39.26-2.12.35s-1.49.19-2.24.31a7.92,7.92,0,0,0-2,.56,3.69,3.69,0,0,0-1.46,1.1,3.09,3.09,0,0,0-.57,2,2.59,2.59,0,0,0,.34,1.38A2.75,2.75,0,0,0,186,55a3.57,3.57,0,0,0,1.23.5,6.46,6.46,0,0,0,1.48.16,7.75,7.75,0,0,0,2.8-.45,5.77,5.77,0,0,0,1.91-1.12,4.26,4.26,0,0,0,1.09-1.47,3.62,3.62,0,0,0,.35-1.5Z" transform="translate(-5 -16.79)"/><path class="cls-10" d="M206.74,38v2.73h.08a5,5,0,0,1,2.57-2.44,9.74,9.74,0,0,1,3.86-.76,9.11,9.11,0,0,1,4.07.86,8.3,8.3,0,0,1,2.88,2.32,10.17,10.17,0,0,1,1.74,3.37,13.72,13.72,0,0,1,.58,4,14.41,14.41,0,0,1-.56,4.05,9.58,9.58,0,0,1-1.72,3.33,8.07,8.07,0,0,1-2.88,2.24,10,10,0,0,1-7.5.16,6.94,6.94,0,0,1-1.69-1,5.27,5.27,0,0,1-1.35-1.5h-.08V65.84h-3.31V38Zm11.9,7.15a7.27,7.27,0,0,0-1.13-2.4,5.52,5.52,0,0,0-1.94-1.67,5.89,5.89,0,0,0-2.79-.62A5.47,5.47,0,0,0,208,42.88,7.37,7.37,0,0,0,207,45.32a11.7,11.7,0,0,0-.33,2.76A11.4,11.4,0,0,0,207,51a6.93,6.93,0,0,0,1.11,2.43,5.55,5.55,0,0,0,2,1.69,6.16,6.16,0,0,0,2.93.65,5.58,5.58,0,0,0,2.86-.67,5.35,5.35,0,0,0,1.85-1.75,7.58,7.58,0,0,0,1-2.49,13.17,13.17,0,0,0,.31-2.88A10.19,10.19,0,0,0,218.64,45.18Z" transform="translate(-5 -16.79)"/><path class="cls-10" d="M229,53.67a3.53,3.53,0,0,0,1.22,1.21,5.52,5.52,0,0,0,1.72.64,9.72,9.72,0,0,0,2,.2,11.84,11.84,0,0,0,1.64-.12,6,6,0,0,0,1.58-.43,3,3,0,0,0,1.18-.91,2.42,2.42,0,0,0,.47-1.54,2.2,2.2,0,0,0-1-1.95,8.23,8.23,0,0,0-2.44-1.07c-1-.27-2-.52-3.17-.74A16.14,16.14,0,0,1,229,48a6.52,6.52,0,0,1-2.43-1.69,4.41,4.41,0,0,1-1-3,4.79,4.79,0,0,1,.68-2.61A5.48,5.48,0,0,1,228,38.91a8.19,8.19,0,0,1,2.42-1,11.09,11.09,0,0,1,2.66-.34,15.49,15.49,0,0,1,3.16.3,7.21,7.21,0,0,1,2.55,1,5.21,5.21,0,0,1,1.77,2,7.32,7.32,0,0,1,.78,3.06H238a3.41,3.41,0,0,0-.5-1.62,3.29,3.29,0,0,0-1.1-1,4.94,4.94,0,0,0-1.46-.57,7.28,7.28,0,0,0-1.61-.17,10.81,10.81,0,0,0-1.5.11,5.37,5.37,0,0,0-1.39.41,2.94,2.94,0,0,0-1,.78,2,2,0,0,0-.39,1.27,1.85,1.85,0,0,0,.61,1.42,4.55,4.55,0,0,0,1.54.93,13.07,13.07,0,0,0,2.1.63l2.34.52c.83.19,1.64.41,2.43.67a7.9,7.9,0,0,1,2.1,1,5.06,5.06,0,0,1,1.48,1.61,4.74,4.74,0,0,1,.57,2.42,5.6,5.6,0,0,1-.76,3,6.08,6.08,0,0,1-2,2,8.53,8.53,0,0,1-2.76,1,16.85,16.85,0,0,1-3.06.29,14.46,14.46,0,0,1-3.2-.35,8,8,0,0,1-2.68-1.15,5.84,5.84,0,0,1-1.87-2.1,7.24,7.24,0,0,1-.78-3.18h3.31A3.56,3.56,0,0,0,229,53.67Z" transform="translate(-5 -16.79)"/><path class="cls-10" d="M249.32,30.36v10.4h.08A4.94,4.94,0,0,1,252,38.32a9.69,9.69,0,0,1,3.85-.76,9.08,9.08,0,0,1,4.07.86,8.34,8.34,0,0,1,2.89,2.32,10.34,10.34,0,0,1,1.73,3.37,13.72,13.72,0,0,1,.58,4,14.06,14.06,0,0,1-.56,4.05,9.73,9.73,0,0,1-1.71,3.33,8,8,0,0,1-2.89,2.24,9.76,9.76,0,0,1-5.68.66,9.11,9.11,0,0,1-1.82-.5,7.13,7.13,0,0,1-1.69-1,5.23,5.23,0,0,1-1.34-1.5h-.08v2.69H246V30.36Zm11.9,14.82a7.69,7.69,0,0,0-1.13-2.4,5.64,5.64,0,0,0-1.95-1.67,5.85,5.85,0,0,0-2.78-.62,5.47,5.47,0,0,0-4.76,2.39,7.37,7.37,0,0,0-1.07,2.44,11.7,11.7,0,0,0-.33,2.76,11.87,11.87,0,0,0,.35,2.87,7.31,7.31,0,0,0,1.11,2.43,5.58,5.58,0,0,0,2,1.69,6.11,6.11,0,0,0,2.92.65,5.55,5.55,0,0,0,2.86-.67,5.18,5.18,0,0,0,1.85-1.75,7.59,7.59,0,0,0,1-2.49,13.81,13.81,0,0,0,.31-2.88A10.6,10.6,0,0,0,261.22,45.18Z" transform="translate(-5 -16.79)"/><path class="cls-10" d="M286.83,58.09a4.68,4.68,0,0,1-2.38.51,2.82,2.82,0,0,1-2-.72,3.13,3.13,0,0,1-.76-2.36,7.94,7.94,0,0,1-3.18,2.36,11,11,0,0,1-6.5.41,6,6,0,0,1-2.13-1,4.74,4.74,0,0,1-1.42-1.73,6.88,6.88,0,0,1,.06-5.39A5.12,5.12,0,0,1,270,48.41a7.07,7.07,0,0,1,2.18-1c.82-.23,1.66-.43,2.51-.58s1.78-.32,2.59-.41a14.39,14.39,0,0,0,2.17-.39,3.74,3.74,0,0,0,1.48-.74,1.82,1.82,0,0,0,.54-1.42,3.28,3.28,0,0,0-.41-1.76,2.75,2.75,0,0,0-1.05-1,4.44,4.44,0,0,0-1.44-.47,12.11,12.11,0,0,0-1.58-.11,6.89,6.89,0,0,0-3.5.8,3.36,3.36,0,0,0-1.52,3h-3.31a7.1,7.1,0,0,1,.78-3.15,5.89,5.89,0,0,1,1.87-2.09A7.68,7.68,0,0,1,274,37.92a13.75,13.75,0,0,1,3.22-.36,18.66,18.66,0,0,1,2.7.2,7,7,0,0,1,2.44.8,4.58,4.58,0,0,1,1.75,1.69,5.39,5.39,0,0,1,.66,2.83V53.42a7.68,7.68,0,0,0,.14,1.71c.09.37.4.55.92.55a3.8,3.8,0,0,0,1-.16Zm-5.38-10.32a4.07,4.07,0,0,1-1.63.68c-.68.14-1.39.26-2.13.35s-1.48.19-2.24.31a8,8,0,0,0-2,.56,3.69,3.69,0,0,0-1.46,1.1,3.09,3.09,0,0,0-.57,2,2.69,2.69,0,0,0,.33,1.38,2.78,2.78,0,0,0,.86.91,3.57,3.57,0,0,0,1.23.5,6.46,6.46,0,0,0,1.48.16,7.79,7.79,0,0,0,2.8-.45A5.77,5.77,0,0,0,280,54.11a4.39,4.39,0,0,0,1.09-1.47,3.62,3.62,0,0,0,.35-1.5Z" transform="translate(-5 -16.79)"/><path class="cls-10" d="M293,38v3.2h.08a7,7,0,0,1,6.54-3.67,8.77,8.77,0,0,1,3.31.55,5.41,5.41,0,0,1,2.15,1.52A5.82,5.82,0,0,1,306.25,42a12.47,12.47,0,0,1,.33,3V58.17h-3.31V44.54a3.78,3.78,0,0,0-4.09-4,6.76,6.76,0,0,0-2.63.46,5,5,0,0,0-1.85,1.33,5.52,5.52,0,0,0-1.11,2,8.12,8.12,0,0,0-.37,2.52V58.17h-3.31V38Z" transform="translate(-5 -16.79)"/><path class="cls-10" d="M315.07,30.36V46.84L324.26,38h4.44l-8,7.33,8.57,12.81h-4.21l-6.9-10.52-3.11,2.89v7.63h-3.31V30.36Z" transform="translate(-5 -16.79)"/><path class="cls-10" d="M346,56.89a9.18,9.18,0,0,1-5.69,1.71,10.34,10.34,0,0,1-4.19-.78,8.37,8.37,0,0,1-3-2.18,9.33,9.33,0,0,1-1.81-3.35,16.16,16.16,0,0,1-.68-4.25,12,12,0,0,1,.7-4.2,9.87,9.87,0,0,1,2-3.31,8.81,8.81,0,0,1,3-2.19,9.27,9.27,0,0,1,3.79-.78,8.24,8.24,0,0,1,4.46,1.12,8.93,8.93,0,0,1,2.85,2.82,11.18,11.18,0,0,1,1.48,3.74,16.26,16.26,0,0,1,.33,3.86H334.19a8,8,0,0,0,.32,2.51,5.63,5.63,0,0,0,1.13,2.1,5.47,5.47,0,0,0,2,1.46,6.8,6.8,0,0,0,2.85.55,5.7,5.7,0,0,0,3.44-1,4.65,4.65,0,0,0,1.77-3H349A8.15,8.15,0,0,1,346,56.89ZM345.24,44A5.69,5.69,0,0,0,344,42.14a5.89,5.89,0,0,0-1.79-1.21,5.83,5.83,0,0,0-2.28-.44,5.92,5.92,0,0,0-2.32.44,5.31,5.31,0,0,0-1.77,1.23A6.12,6.12,0,0,0,334.7,44a7,7,0,0,0-.51,2.2h11.57A6.67,6.67,0,0,0,345.24,44Z" transform="translate(-5 -16.79)"/><path class="cls-10" d="M355.81,38v3.2h.08a7,7,0,0,1,6.54-3.67,8.86,8.86,0,0,1,3.32.55,5.45,5.45,0,0,1,2.14,1.52A5.69,5.69,0,0,1,369,42a12.47,12.47,0,0,1,.33,3V58.17h-3.31V44.54a4,4,0,0,0-1.09-3,4.05,4.05,0,0,0-3-1.09,6.76,6.76,0,0,0-2.63.46,5,5,0,0,0-1.85,1.33,5.52,5.52,0,0,0-1.11,2A8.12,8.12,0,0,0,356,46.8V58.17H352.7V38Z" transform="translate(-5 -16.79)"/></svg>