<?xml version="1.0" encoding="utf-8"?>
<!-- Generator: Adobe Illustrator 22.1.0, SVG Export Plug-In . SVG Version: 6.00 Build 0)  -->
<svg version="1.1" id="Lager_1" xmlns="http://www.w3.org/2000/svg" xmlns:xlink="http://www.w3.org/1999/xlink" x="0px" y="0px"
	 viewBox="0 0 94 94" style="enable-background:new 0 0 94 94;" xml:space="preserve">
<style type="text/css">
	.st0{clip-path:url(#SVGID_2_);fill:url(#SVGID_3_);}
	.st1{clip-path:url(#SVGID_5_);fill:url(#SVGID_6_);}
	.st2{clip-path:url(#SVGID_8_);fill:url(#SVGID_9_);}
	.st3{clip-path:url(#SVGID_11_);fill:url(#SVGID_12_);}
</style>
<g>
	<defs>
		<path id="SVGID_1_" d="M1.1,47.3c0,9.4,2.8,18.1,7.6,25.4l38-38L21.3,9.2C9.1,17.5,1.1,31.5,1.1,47.3"/>
	</defs>
	<clipPath id="SVGID_2_">
		<use xlink:href="#SVGID_1_"  style="overflow:visible;"/>
	</clipPath>
	
		<linearGradient id="SVGID_3_" gradientUnits="userSpaceOnUse" x1="-128.3807" y1="297.8954" x2="-126.4869" y2="297.8954" gradientTransform="matrix(24.0923 0 0 -24.0923 3094.1235 7217.9302)">
		<stop  offset="0" style="stop-color:#455CA7"/>
		<stop  offset="1" style="stop-color:#527BBD"/>
	</linearGradient>
	<rect x="1.1" y="9.2" class="st0" width="45.6" height="63.4"/>
</g>
<g>
	<defs>
		<path id="SVGID_4_" d="M23.4,7.9l36.1,36.1l24.4-24.4C75.5,8.5,62.2,1.3,47.1,1.3C38.4,1.3,30.3,3.7,23.4,7.9"/>
	</defs>
	<clipPath id="SVGID_5_">
		<use xlink:href="#SVGID_4_"  style="overflow:visible;"/>
	</clipPath>
	
		<linearGradient id="SVGID_6_" gradientUnits="userSpaceOnUse" x1="-125.1769" y1="312.0293" x2="-123.2832" y2="312.0293" gradientTransform="matrix(0 22.5681 22.5681 0 -6988.2588 2826.3171)">
		<stop  offset="0" style="stop-color:#C24468"/>
		<stop  offset="1" style="stop-color:#E94367"/>
	</linearGradient>
	<rect x="23.4" y="1.3" class="st1" width="60.5" height="42.7"/>
</g>
<g>
	<defs>
		<path id="SVGID_7_" d="M46.5,60.6L72,86c12.7-8.2,21.2-22.5,21.2-38.7c0-9.5-2.9-18.2-7.7-25.5L46.5,60.6z"/>
	</defs>
	<clipPath id="SVGID_8_">
		<use xlink:href="#SVGID_7_"  style="overflow:visible;"/>
	</clipPath>
	
		<linearGradient id="SVGID_9_" gradientUnits="userSpaceOnUse" x1="-127.6068" y1="297.8169" x2="-125.7131" y2="297.8169" gradientTransform="matrix(24.6081 0 0 -24.6081 3186.7041 7382.6216)">
		<stop  offset="0" style="stop-color:#34A953"/>
		<stop  offset="1" style="stop-color:#359453"/>
	</linearGradient>
	<rect x="46.5" y="21.8" class="st2" width="46.6" height="64.3"/>
</g>
<g>
	<defs>
		<path id="SVGID_10_" d="M10.2,74.8C18.6,86,32,93.3,47.1,93.3c8.3,0,16-2.2,22.7-6L33.8,51.2L10.2,74.8z"/>
	</defs>
	<clipPath id="SVGID_11_">
		<use xlink:href="#SVGID_10_"  style="overflow:visible;"/>
	</clipPath>
	
		<linearGradient id="SVGID_12_" gradientUnits="userSpaceOnUse" x1="-123.9996" y1="311.8318" x2="-122.1058" y2="311.8318" gradientTransform="matrix(0 22.2324 22.2324 0 -6892.7183 2808.0183)">
		<stop  offset="0" style="stop-color:#F9B012"/>
		<stop  offset="1" style="stop-color:#F18515"/>
	</linearGradient>
	<rect x="10.2" y="51.2" class="st3" width="59.6" height="42.1"/>
</g>
</svg>
